# xmcd
#
# Track frame offsets: 
#        150
#        14880
#        31762
#        48427
#        63437
#        79037
#        94912
#        105825
#        117772
#        131100
#        147487
#        166192
#        178152
#        193475
#
# Disc length: 2787 seconds
#
# Revision: 0
# Processed by: cddbd v1.5.2PL0 Copyright (c) Steve Scherf et al.
# Submitted via: ExactAudioCopy v0.99pb3
#
DISCID=c40ae10e
DTITLE=สุนารี ราชสีมา - สุนารี กับ 14 เพลงหวาน ชุดที่ 1
DYEAR=1900
DGENRE=Vocal
TTITLE0=มือถือไมค์ ไฟส่องหน้า
TTITLE1=รอ'่างในดวงใจ
TTITLE2=ชายในอุดมคติ
TTITLE3=ให้เขาเร็วไป
TTITLE4=กอดฉันแต่อย่ารักฉัน
TTITLE5=ที่รัก ฉันยอมเสียสละ
TTITLE6=ที่รักฉันรักเธอ
TTITLE7=สุดท้ายที่กรุงเทพ
TTITLE8=ฉันไร้ค่าถ้าขาดเธอ
TTITLE9=น้ำตาสาวเสิร์ฟ
TTITLE10=นางฟ้ามีเบอร์
TTITLE11=รักก็ช้ำเลิกก็ช้ำ
TTITLE12=กราบเท้าย่าโม
TTITLE13=ความจนเรื้อรัง
EXTD=
EXTT0=
EXTT1=
EXTT2=
EXTT3=
EXTT4=
EXTT5=
EXTT6=
EXTT7=
EXTT8=
EXTT9=
EXTT10=
EXTT11=
EXTT12=
EXTT13=
PLAYORDER=
